<svg xmlns="http://www.w3.org/2000/svg" xmlns:xlink="http://www.w3.org/1999/xlink" width="500" zoomAndPan="magnify" viewBox="0 0 375 374.999991" height="500" preserveAspectRatio="xMidYMid meet" version="1.0"><defs><g/><clipPath id="80452444bd"><path d="M 277.976562 150.660156 L 308.648438 150.660156 L 308.648438 212 L 277.976562 212 Z M 277.976562 150.660156 " clip-rule="nonzero"/></clipPath><clipPath id="ddff702644"><path d="M 277.976562 150.660156 C 279.992188 150.660156 281.988281 150.855469 283.960938 151.25 C 285.9375 151.640625 287.855469 152.222656 289.714844 152.996094 C 291.574219 153.765625 293.34375 154.710938 295.015625 155.828125 C 296.691406 156.949219 298.242188 158.21875 299.664062 159.644531 C 301.089844 161.066406 302.359375 162.617188 303.480469 164.289062 C 304.597656 165.964844 305.542969 167.730469 306.3125 169.59375 C 307.085938 171.453125 307.667969 173.371094 308.058594 175.347656 C 308.453125 177.320312 308.648438 179.316406 308.648438 181.328125 C 308.648438 183.34375 308.453125 185.339844 308.058594 187.3125 C 307.667969 189.289062 307.085938 191.207031 306.3125 193.066406 C 305.542969 194.925781 304.597656 196.695312 303.480469 198.371094 C 302.359375 200.042969 301.089844 201.59375 299.664062 203.015625 C 298.242188 204.441406 296.691406 205.710938 295.015625 206.832031 C 293.34375 207.949219 291.574219 208.894531 289.714844 209.664062 C 287.855469 210.4375 285.9375 211.019531 283.960938 211.410156 C 281.988281 211.804688 279.992188 212 277.976562 212 L 277.976562 202.800781 C 279.386719 202.800781 280.785156 202.660156 282.167969 202.386719 C 283.550781 202.109375 284.890625 201.703125 286.195312 201.164062 C 287.496094 200.625 288.734375 199.964844 289.90625 199.179688 C 291.078125 198.398438 292.164062 197.507812 293.160156 196.511719 C 294.15625 195.515625 295.046875 194.429688 295.828125 193.257812 C 296.613281 192.085938 297.273438 190.847656 297.8125 189.546875 C 298.351562 188.242188 298.757812 186.902344 299.035156 185.519531 C 299.308594 184.136719 299.449219 182.738281 299.449219 181.328125 C 299.449219 179.921875 299.308594 178.523438 299.035156 177.140625 C 298.757812 175.757812 298.351562 174.417969 297.8125 173.113281 C 297.273438 171.8125 296.613281 170.574219 295.828125 169.402344 C 295.046875 168.230469 294.15625 167.144531 293.160156 166.148438 C 292.164062 165.152344 291.078125 164.261719 289.90625 163.480469 C 288.734375 162.695312 287.496094 162.035156 286.195312 161.496094 C 284.890625 160.957031 283.550781 160.546875 282.167969 160.273438 C 280.785156 160 279.386719 159.859375 277.976562 159.859375 Z M 277.976562 150.660156 " clip-rule="nonzero"/></clipPath><clipPath id="76bce64b5a"><path d="M 277.976562 150.351562 L 309 150.351562 L 309 196.359375 L 277.976562 196.359375 Z M 277.976562 150.351562 " clip-rule="nonzero"/></clipPath><clipPath id="2d9a64d268"><path d="M 277.976562 150.660156 C 279.304688 150.660156 280.625 150.746094 281.941406 150.917969 C 283.257812 151.089844 284.554688 151.34375 285.839844 151.683594 C 287.121094 152.023438 288.375 152.445312 289.605469 152.949219 C 290.832031 153.453125 292.023438 154.03125 293.175781 154.6875 C 294.328125 155.347656 295.429688 156.074219 296.488281 156.875 C 297.546875 157.675781 298.546875 158.542969 299.496094 159.472656 C 300.441406 160.402344 301.320312 161.390625 302.136719 162.4375 C 302.957031 163.480469 303.703125 164.574219 304.378906 165.71875 C 305.050781 166.859375 305.652344 168.039062 306.171875 169.261719 C 306.695312 170.480469 307.136719 171.726562 307.496094 173.003906 C 307.855469 174.28125 308.132812 175.578125 308.324219 176.890625 C 308.515625 178.203125 308.625 179.523438 308.644531 180.847656 C 308.664062 182.175781 308.601562 183.496094 308.449219 184.816406 C 308.300781 186.132812 308.0625 187.4375 307.742188 188.722656 C 307.425781 190.011719 307.023438 191.273438 306.539062 192.507812 C 306.054688 193.742188 305.492188 194.941406 304.855469 196.105469 L 296.792969 191.671875 C 297.238281 190.859375 297.632812 190.019531 297.96875 189.15625 C 298.308594 188.289062 298.589844 187.40625 298.8125 186.503906 C 299.039062 185.605469 299.203125 184.691406 299.308594 183.769531 C 299.414062 182.847656 299.460938 181.921875 299.445312 180.992188 C 299.429688 180.0625 299.355469 179.140625 299.222656 178.222656 C 299.085938 177.300781 298.894531 176.394531 298.640625 175.503906 C 298.390625 174.609375 298.082031 173.734375 297.714844 172.882812 C 297.347656 172.027344 296.929688 171.199219 296.457031 170.402344 C 295.984375 169.601562 295.460938 168.835938 294.890625 168.105469 C 294.316406 167.375 293.703125 166.683594 293.039062 166.03125 C 292.378906 165.378906 291.675781 164.773438 290.9375 164.210938 C 290.195312 163.652344 289.421875 163.140625 288.617188 162.679688 C 287.808594 162.222656 286.976562 161.816406 286.117188 161.464844 C 285.257812 161.109375 284.378906 160.816406 283.480469 160.578125 C 282.582031 160.339844 281.671875 160.160156 280.753906 160.039062 C 279.832031 159.921875 278.90625 159.859375 277.976562 159.859375 Z M 277.976562 150.660156 " clip-rule="nonzero"/></clipPath><clipPath id="c3f7ae5153"><path d="M 221.109375 144.402344 L 275.859375 144.402344 L 275.859375 167.652344 L 221.109375 167.652344 Z M 221.109375 144.402344 " clip-rule="nonzero"/></clipPath></defs><g fill="#000000" fill-opacity="1"><g transform="translate(44.667592, 212.53513)"><g><path d="M 33.316406 -0.636719 L 17.191406 -42.125 C 17.03125 -42.550781 16.289062 -42.550781 16.128906 -42.125 L 0.0546875 -0.636719 C -0.105469 -0.316406 0.105469 0 0.582031 0 L 7.851562 0 C 8.0625 0 8.328125 -0.105469 8.382812 -0.316406 L 16.660156 -23.980469 L 25.042969 -0.316406 C 25.09375 -0.105469 25.359375 0 25.519531 0 L 32.839844 0 C 33.210938 0 33.476562 -0.316406 33.316406 -0.636719 Z M 33.316406 -0.636719 "/></g></g></g><g fill="#000000" fill-opacity="1"><g transform="translate(79.680607, 212.53513)"><g><path d="M 37.988281 -10.238281 L 46.050781 -10.238281 L 46.050781 -41.964844 C 46.050781 -42.179688 45.839844 -42.441406 45.46875 -42.441406 L 38.464844 -42.441406 C 38.25 -42.441406 37.988281 -42.285156 37.878906 -42.125 L 23.398438 -11.035156 L 8.171875 -42.125 C 8.117188 -42.285156 7.800781 -42.441406 7.640625 -42.441406 L 0.53125 -42.441406 C 0.160156 -42.441406 0 -42.179688 0 -41.964844 L 0 -0.476562 C 0 -0.265625 0.160156 0 0.53125 0 L 7.535156 0 C 7.851562 0 8.117188 -0.265625 8.117188 -0.476562 L 8.117188 -24.296875 L 19.628906 -2.015625 C 19.683594 -1.855469 20 -1.699219 20.160156 -1.699219 L 26.6875 -1.699219 C 26.84375 -1.699219 27.109375 -1.855469 27.164062 -2.015625 L 37.988281 -23.714844 Z M 37.988281 -10.238281 "/></g></g></g><g fill="#000000" fill-opacity="1"><g transform="translate(128.062233, 212.53513)"><g><path d="M 33.316406 -0.636719 L 17.191406 -42.125 C 17.03125 -42.550781 16.289062 -42.550781 16.128906 -42.125 L 0.0546875 -0.636719 C -0.105469 -0.316406 0.105469 0 0.582031 0 L 7.851562 0 C 8.0625 0 8.328125 -0.105469 8.382812 -0.316406 L 16.660156 -23.980469 L 25.042969 -0.316406 C 25.09375 -0.105469 25.359375 0 25.519531 0 L 32.839844 0 C 33.210938 0 33.476562 -0.316406 33.316406 -0.636719 Z M 33.316406 -0.636719 "/></g></g></g><g fill="#000000" fill-opacity="1"><g transform="translate(163.075249, 212.53513)"><g><path d="M 24.828125 -7.851562 L 3.023438 -7.851562 L 0.105469 -0.691406 C -0.0546875 -0.265625 0.160156 0 0.691406 0 L 24.777344 0 C 25.148438 0 25.414062 -0.265625 25.414062 -0.476562 L 25.414062 -7.375 C 25.414062 -7.640625 25.199219 -7.851562 24.828125 -7.851562 Z M 0.582031 -34.539062 L 13.6875 -34.539062 L 6.261719 -15.96875 L 14.960938 -15.96875 L 25.308594 -41.753906 C 25.414062 -42.179688 25.199219 -42.441406 24.722656 -42.441406 L 0.582031 -42.441406 C 0.265625 -42.441406 0 -42.179688 0 -41.964844 L 0 -35.070312 C 0 -34.804688 0.265625 -34.539062 0.582031 -34.539062 Z M 0.582031 -34.539062 "/></g></g></g><g fill="#000000" fill-opacity="1"><g transform="translate(189.759418, 212.53513)"><g><path d="M 17.296875 -7.269531 L 13.050781 -7.269531 L 13.050781 -42.441406 L 4.933594 -42.441406 L 4.933594 -7.269531 L 0.582031 -7.269531 C 0.265625 -7.269531 0 -7.054688 0 -6.789062 L 0 -0.476562 C 0 -0.265625 0.265625 0 0.582031 0 L 17.296875 0 C 17.667969 0 17.878906 -0.265625 17.878906 -0.476562 L 17.878906 -6.789062 C 17.878906 -7.054688 17.667969 -7.269531 17.296875 -7.269531 Z M 17.296875 -7.269531 "/></g></g></g><g fill="#000000" fill-opacity="1"><g transform="translate(208.539135, 212.53513)"><g><path d="M 35.121094 -42.441406 L 28.277344 -42.441406 C 27.90625 -42.441406 27.640625 -42.179688 27.640625 -41.964844 L 27.640625 -14.324219 L 8.0625 -42.285156 C 8.011719 -42.390625 7.691406 -42.441406 7.585938 -42.441406 L 0.53125 -42.441406 C 0.265625 -42.441406 0 -42.179688 0 -41.964844 L 0 -10.1875 L 8.117188 -10.1875 L 8.117188 -28.117188 L 27.640625 -0.160156 C 27.695312 -0.0546875 28.011719 0 28.117188 0 L 35.121094 0 C 35.492188 0 35.707031 -0.265625 35.707031 -0.476562 L 35.707031 -41.964844 C 35.707031 -42.179688 35.492188 -42.441406 35.121094 -42.441406 Z M 35.121094 -42.441406 "/></g></g></g><g fill="#000000" fill-opacity="1"><g transform="translate(246.045498, 212.53513)"><g><path d="M 32.363281 -34.644531 L 32.363281 -41.964844 C 32.363281 -42.179688 32.152344 -42.441406 31.777344 -42.441406 L 24.882812 -42.441406 C 14.324219 -42.441406 0 -39.367188 0 -21.222656 C 0 -2.386719 14.484375 0 24.882812 0 L 31.777344 0 C 32.152344 0 32.363281 -0.265625 32.363281 -0.476562 L 32.363281 -26.472656 L 16.074219 -26.472656 L 16.074219 -18.355469 L 24.246094 -18.355469 L 24.246094 -7.746094 C 15.015625 -7.269531 8.171875 -11.140625 8.171875 -21.222656 C 8.171875 -34.324219 19.097656 -34.855469 24.246094 -34.644531 Z M 32.363281 -34.644531 "/></g></g></g><g clip-path="url(#80452444bd)"><g clip-path="url(#ddff702644)"><path fill="#000000" d="M 308.648438 150.660156 L 308.648438 212 L 277.976562 212 L 277.976562 150.660156 Z M 308.648438 150.660156 " fill-opacity="1" fill-rule="nonzero"/></g></g><g clip-path="url(#76bce64b5a)"><g clip-path="url(#2d9a64d268)"><path fill="#ff914d" d="M 308.648438 150.660156 L 308.648438 212 L 277.976562 212 L 277.976562 150.660156 Z M 308.648438 150.660156 " fill-opacity="1" fill-rule="nonzero"/></g></g><g clip-path="url(#c3f7ae5153)"><path fill="#ff914d" d="M 263.855469 167.644531 L 233.109375 167.644531 C 231.53125 167.644531 230.019531 167.339844 228.570312 166.726562 C 227.167969 166.132812 225.929688 165.300781 224.851562 164.230469 C 223.773438 163.160156 222.9375 161.929688 222.339844 160.539062 C 221.722656 159.097656 221.414062 157.59375 221.414062 156.027344 C 221.414062 154.460938 221.722656 152.957031 222.339844 151.515625 C 222.9375 150.125 223.773438 148.890625 224.851562 147.824219 C 225.929688 146.753906 227.167969 145.921875 228.570312 145.328125 C 230.019531 144.714844 231.53125 144.410156 233.109375 144.410156 L 263.855469 144.410156 C 265.433594 144.410156 266.945312 144.714844 268.398438 145.328125 C 269.800781 145.921875 271.039062 146.753906 272.117188 147.824219 C 273.191406 148.894531 274.03125 150.125 274.628906 151.515625 C 275.242188 152.957031 275.550781 154.460938 275.550781 156.027344 C 275.550781 157.59375 275.242188 159.097656 274.628906 160.539062 C 274.03125 161.933594 273.191406 163.164062 272.117188 164.234375 C 271.039062 165.304688 269.800781 166.132812 268.398438 166.726562 C 266.945312 167.339844 265.433594 167.648438 263.855469 167.644531 Z M 233.109375 145.179688 C 227.089844 145.179688 222.1875 150.046875 222.1875 156.027344 C 222.1875 162.007812 227.089844 166.875 233.109375 166.875 L 263.855469 166.875 C 269.878906 166.875 274.777344 162.007812 274.777344 156.027344 C 274.777344 150.046875 269.878906 145.179688 263.855469 145.179688 Z M 273.210938 156 C 273.210938 150.847656 268.964844 146.632812 263.777344 146.632812 L 233.011719 146.632812 C 227.824219 146.632812 223.578125 150.847656 223.578125 156 C 223.578125 161.15625 227.824219 165.371094 233.011719 165.371094 L 263.777344 165.371094 C 268.964844 165.371094 273.210938 161.15625 273.210938 156 Z M 273.210938 156 " fill-opacity="1" fill-rule="nonzero"/></g><path fill="#fbfcf6" d="M 233.59375 158.867188 L 228.839844 158.867188 C 228.464844 158.867188 228.105469 158.796875 227.757812 158.652344 C 227.410156 158.507812 227.105469 158.304688 226.839844 158.042969 C 226.574219 157.777344 226.371094 157.472656 226.226562 157.128906 C 226.082031 156.785156 226.007812 156.425781 226.007812 156.054688 C 226.007812 155.679688 226.082031 155.324219 226.226562 154.976562 C 226.371094 154.632812 226.574219 154.328125 226.839844 154.066406 C 227.105469 153.800781 227.410156 153.597656 227.757812 153.457031 C 228.105469 153.3125 228.464844 153.242188 228.839844 153.238281 L 233.59375 153.238281 C 233.96875 153.242188 234.332031 153.3125 234.675781 153.457031 C 235.023438 153.597656 235.328125 153.800781 235.59375 154.066406 C 235.859375 154.328125 236.066406 154.632812 236.210938 154.976562 C 236.355469 155.324219 236.425781 155.679688 236.425781 156.054688 C 236.425781 156.425781 236.355469 156.785156 236.210938 157.128906 C 236.066406 157.472656 235.859375 157.777344 235.59375 158.042969 C 235.328125 158.304688 235.023438 158.507812 234.675781 158.652344 C 234.332031 158.796875 233.96875 158.867188 233.59375 158.867188 Z M 233.59375 158.867188 " fill-opacity="1" fill-rule="nonzero"/><path fill="#000000" d="M 241.585938 151.449219 C 241.972656 151.519531 242.359375 151.558594 242.753906 151.5625 L 244.875 151.5625 C 245.738281 151.5625 246.167969 151.902344 246.167969 152.582031 C 245.894531 153.113281 245.582031 153.382812 245.226562 153.382812 C 244.425781 153.304688 243.800781 153.269531 243.347656 153.269531 L 242.519531 153.269531 L 242.519531 154.289062 C 242.519531 155.074219 242.558594 155.679688 242.640625 156.105469 C 242.554688 156.632812 242.515625 157.164062 242.519531 157.699219 C 242.519531 157.886719 242.558594 158.457031 242.640625 159.414062 C 242.367188 159.941406 242.054688 160.207031 241.699219 160.207031 C 241.195312 160.207031 240.882812 159.863281 240.753906 159.179688 L 240.753906 156.90625 C 240.753906 156.109375 240.796875 154.898438 240.875 153.265625 L 239.820312 153.265625 C 238.171875 153.070312 237.351562 152.800781 237.351562 152.464844 L 237.351562 152.011719 C 237.476562 151.707031 237.75 151.554688 238.171875 151.554688 L 240.519531 151.554688 C 240.9375 151.558594 241.289062 151.523438 241.585938 151.449219 Z M 249.75 153.167969 C 252.132812 153.167969 253.324219 154.898438 253.324219 158.359375 L 253.324219 159.589844 C 253.324219 160.683594 253.140625 161.226562 252.777344 161.226562 L 252.640625 161.226562 C 252.386719 161.226562 252.203125 160.773438 252.085938 159.863281 L 252.085938 159.453125 L 251.949219 159.453125 C 251.183594 160.183594 250.496094 160.546875 249.886719 160.546875 L 249.332031 160.546875 C 246.859375 160.546875 245.621094 159.273438 245.621094 156.71875 C 245.621094 154.683594 247 153.503906 249.75 153.167969 Z M 247.21875 156.5 C 247.21875 158.121094 247.949219 158.933594 249.410156 158.933594 L 249.410156 159.050781 C 250.871094 158.480469 251.597656 157.714844 251.597656 156.757812 C 251.597656 155.527344 251.125 154.847656 250.175781 154.710938 L 249.539062 154.710938 C 247.992188 154.992188 247.21875 155.589844 247.21875 156.5 Z M 257.082031 153.402344 C 257.820312 153.582031 258.191406 153.855469 258.191406 154.226562 C 258.191406 154.542969 257.535156 154.855469 256.214844 155.164062 L 255.964844 155.472656 L 255.964844 155.570312 C 255.964844 155.863281 256.417969 156.691406 257.324219 158.054688 L 257.324219 158.675781 C 257.324219 159.703125 256.542969 160.425781 254.976562 160.84375 L 254.726562 160.84375 C 254.066406 160.664062 253.738281 160.492188 253.738281 160.332031 L 253.738281 159.808594 C 253.777344 159.605469 254.316406 159.296875 255.347656 158.878906 L 255.46875 158.367188 C 254.5625 157.269531 254.109375 156.476562 254.109375 155.988281 L 254.109375 155.472656 C 254.109375 154.269531 255.101562 153.582031 257.082031 153.402344 Z M 258.9375 150.707031 L 259.089844 150.707031 C 259.496094 150.707031 259.746094 151.414062 259.84375 152.820312 L 259.84375 155.058594 L 259.996094 155.058594 L 263.636719 153.296875 C 264.042969 153.414062 264.246094 153.53125 264.246094 153.644531 L 264.246094 154 C 264.246094 154.167969 263.589844 154.675781 262.273438 155.527344 L 262.273438 155.648438 C 263.597656 157.324219 264.355469 158.539062 264.546875 159.292969 L 264.546875 159.40625 C 264.546875 159.523438 264.394531 159.640625 264.089844 159.761719 L 263.632812 159.761719 C 263.328125 159.761719 262.519531 158.546875 261.207031 156.113281 L 260.910156 156.113281 C 260.199219 156.441406 259.84375 156.679688 259.84375 156.824219 C 259.84375 157.066406 259.894531 157.808594 259.996094 159.050781 C 259.925781 159.683594 259.523438 159.996094 258.789062 159.996094 C 258.382812 159.734375 258.179688 159.03125 258.179688 157.882812 C 258.382812 154.179688 258.484375 151.867188 258.484375 150.941406 Z M 268.144531 153.402344 C 268.886719 153.582031 269.257812 153.855469 269.257812 154.226562 C 269.257812 154.542969 268.597656 154.855469 267.28125 155.164062 L 267.027344 155.472656 L 267.027344 155.570312 C 267.027344 155.863281 267.480469 156.691406 268.390625 158.054688 L 268.390625 158.675781 C 268.390625 159.703125 267.605469 160.425781 266.039062 160.84375 L 265.789062 160.84375 C 265.128906 160.664062 264.800781 160.492188 264.800781 160.332031 L 264.800781 159.808594 C 264.839844 159.605469 265.378906 159.296875 266.414062 158.878906 L 266.535156 158.367188 C 265.628906 157.269531 265.171875 156.476562 265.171875 155.988281 L 265.171875 155.472656 C 265.175781 154.269531 266.164062 153.582031 268.148438 153.402344 Z M 233.3125 153.972656 C 233.035156 153.972656 232.765625 154.027344 232.511719 154.132812 C 232.253906 154.238281 232.027344 154.386719 231.832031 154.582031 C 231.632812 154.777344 231.484375 155.003906 231.378906 155.257812 C 231.269531 155.511719 231.21875 155.777344 231.21875 156.054688 C 231.21875 156.328125 231.269531 156.59375 231.378906 156.851562 C 231.484375 157.105469 231.632812 157.328125 231.832031 157.523438 C 232.027344 157.71875 232.253906 157.871094 232.511719 157.976562 C 232.765625 158.082031 233.035156 158.132812 233.3125 158.132812 C 233.589844 158.132812 233.855469 158.082031 234.113281 157.976562 C 234.371094 157.871094 234.597656 157.71875 234.792969 157.523438 C 234.988281 157.328125 235.140625 157.105469 235.246094 156.851562 C 235.351562 156.59375 235.40625 156.328125 235.40625 156.054688 C 235.40625 155.777344 235.351562 155.511719 235.246094 155.257812 C 235.140625 155.003906 234.988281 154.777344 234.792969 154.582031 C 234.597656 154.386719 234.371094 154.238281 234.113281 154.132812 C 233.855469 154.027344 233.589844 153.972656 233.3125 153.972656 Z M 233.3125 153.972656 " fill-opacity="1" fill-rule="nonzero"/></svg>